<?xml version="1.0" encoding="UTF-8"?>
<svg version="1.1" xmlns="http://www.w3.org/2000/svg" width="474" height="355">
<path d="M0 0 C156.42 0 312.84 0 474 0 C474 117.15 474 234.3 474 355 C317.58 355 161.16 355 0 355 C0 237.85 0 120.7 0 0 Z " fill="#FDFDFD" transform="translate(0,0)"/>
<path d="M0 0 C0.680625 0.2475 1.36125 0.495 2.0625 0.75 C3.0525 4.215 3.0525 4.215 4.0625 7.75 C4.784375 7.069375 5.50625 6.38875 6.25 5.6875 C9.0625 3.75 9.0625 3.75 11.73828125 4.12890625 C12.88876953 4.43634766 12.88876953 4.43634766 14.0625 4.75 C14.08119141 5.47590332 14.09988281 6.20180664 14.11914062 6.94970703 C14.22699131 10.26082887 14.39414333 13.56642537 14.5625 16.875 C14.59085938 18.01710938 14.61921875 19.15921875 14.6484375 20.3359375 C14.87707804 26.57102925 14.87707804 26.57102925 17.87548828 31.79907227 C19.98476597 33.40677096 19.98476597 33.40677096 22.18212891 34.62768555 C25.20567748 36.43231458 25.94876541 38.47067037 27.0625 41.75 C27.29635585 43.54106065 27.52504791 45.3327993 27.75 47.125 C28.46359455 51.79178204 29.67201923 53.80507688 33.1875 56.9375 C37.660332 60.93779237 37.660332 60.93779237 37.875 64.75 C37.16439656 70.88046019 33.63204039 75.89928477 28.875 79.6875 C22.28563599 83.50037471 13.45215526 82.66315576 6.0625 82.75 C4.96838306 90.32734179 4.02880718 97.8723333 3.41088867 105.50366211 C1.96831103 122.83508941 -2.10657708 140.08815416 -9.9375 155.75 C-10.09245763 157.99974161 -10.18760928 160.25371536 -10.25390625 162.5078125 C-10.2850779 163.50238968 -10.2850779 163.50238968 -10.31687927 164.51705933 C-10.38229231 166.63626694 -10.44122105 168.755599 -10.5 170.875 C-10.54319309 172.31121081 -10.58680764 173.74740902 -10.63085938 175.18359375 C-10.73796499 178.70559594 -10.83925575 182.22773825 -10.9375 185.75 C-10.01066406 185.88277344 -9.08382812 186.01554688 -8.12890625 186.15234375 C-3.47883277 187.02316534 -0.44971604 188.88850572 2.55078125 192.58203125 C5.2789133 196.60122297 7.01371825 199.75610418 6.0625 204.75 C2.56913182 207.07891212 1.20242135 206.98551143 -2.91796875 206.9453125 C-4.66303711 206.93564453 -4.66303711 206.93564453 -6.44335938 206.92578125 C-7.65830078 206.90902344 -8.87324219 206.89226562 -10.125 206.875 C-11.35154297 206.86597656 -12.57808594 206.85695313 -13.84179688 206.84765625 C-16.87389295 206.82406017 -19.90559938 206.79113841 -22.9375 206.75 C-24.44943177 203.08714007 -25.45819988 199.63613557 -26.25 195.75 C-27.58127609 189.74901702 -29.53250995 184.21253622 -31.8515625 178.52734375 C-32.73770889 176.26097654 -33.4255011 174.12226159 -33.9375 171.75 C-34.5975 171.75 -35.2575 171.75 -35.9375 171.75 C-36.123125 172.575 -36.30875 173.4 -36.5 174.25 C-38.75163664 179.73224574 -42.78852273 183.60102273 -46.9375 187.75 C-46.195 188.12125 -45.4525 188.4925 -44.6875 188.875 C-40.87466641 191.47465927 -38.5651526 194.30761272 -37.3984375 198.84765625 C-37.0625 201 -37.0625 201 -36.9375 204.75 C-39.51087514 207.32337514 -41.24480349 207.00289728 -44.75344849 207.04327393 C-45.56740082 207.04236755 -46.38135315 207.04146118 -47.2199707 207.04052734 C-48.0772023 207.04724457 -48.9344339 207.05396179 -49.81764221 207.06088257 C-52.66624689 207.07995421 -55.51461659 207.08379296 -58.36328125 207.0859375 C-60.34710283 207.09236483 -62.33092346 207.09909314 -64.31474304 207.10610962 C-68.48532299 207.11810931 -72.65582001 207.12178826 -76.82641602 207.12060547 C-82.14109644 207.12040344 -87.4552351 207.14757256 -92.76978779 207.18214989 C-96.87508014 207.20453301 -100.98024518 207.20843934 -105.08559227 207.20738602 C-107.04258254 207.20972995 -108.99957697 207.21848458 -110.95650673 207.23405075 C-127.85666354 207.35576301 -141.20324098 205.73535723 -154.12109375 193.71875 C-165.19311192 182.16533974 -169.59589463 167.06429123 -169.55712891 151.31835938 C-168.91522551 136.65559142 -159.77351774 123.42667989 -152.82421875 110.96875 C-145.01318757 98.08763265 -145.01318757 98.08763265 -141.75 83.8125 C-141.73582031 82.95785156 -141.72164062 82.10320312 -141.70703125 81.22265625 C-141.9606835 78.50126854 -142.37820904 76.99268392 -143.9375 74.75 C-145.99209162 73.4494536 -145.99209162 73.4494536 -148.375 72.5625 C-149.15746094 72.23894531 -149.93992188 71.91539062 -150.74609375 71.58203125 C-152.46166128 70.93066604 -154.19660835 70.33029722 -155.9375 69.75 C-155.9375 67.77 -155.9375 65.79 -155.9375 63.75 C-148.89563615 64.00606778 -144.32940726 66.20888678 -138.9375 70.75 C-134.58487926 75.74300632 -134.45004888 80.93197076 -134.55078125 87.37109375 C-135.81688016 98.43347313 -142.96082313 108.47127911 -148.45947266 117.90625 C-157.61720582 133.68220097 -164.97016927 148.17778907 -160.8125 166.875 C-157.27096437 179.22919404 -151.50159599 189.10849371 -140.25 195.6875 C-137.17265368 197.34712918 -134.38629136 198.17620809 -130.9375 198.75 C-131.73713447 194.17477186 -133.24264327 190.08451278 -134.90234375 185.76171875 C-137.65537938 177.7519434 -138.29243846 170.75836762 -138.25 162.3125 C-138.24508545 161.16104492 -138.2401709 160.00958984 -138.23510742 158.82324219 C-137.98624931 140.57364695 -134.46728498 123.03768782 -123.9375 107.75 C-123.42574219 106.99203125 -122.91398437 106.2340625 -122.38671875 105.453125 C-111.65930088 90.60371602 -95.04131739 82.05460374 -77.9375 76.75 C-76.968125 76.44191406 -75.99875 76.13382812 -75 75.81640625 C-68.67860592 73.93974238 -62.51370185 73.11887786 -55.9375 72.75 C-55.82535156 71.5846875 -55.71320313 70.419375 -55.59765625 69.21875 C-55.06669634 65.01539431 -53.91011301 61.18970601 -52.375 57.25 C-52.11323975 56.56856934 -51.85147949 55.88713867 -51.58178711 55.18505859 C-47.17777639 44.01047367 -41.99023983 31.80389127 -33.9375 22.75 C-33.2775 22.75 -32.6175 22.75 -31.9375 22.75 C-31.9375 22.09 -31.9375 21.43 -31.9375 20.75 C-27.59698694 16.00509132 -22.07768414 12.3014532 -16.875 8.5625 C-16.2979834 8.14677734 -15.7209668 7.73105469 -15.12646484 7.30273438 C-4.2957191 -0.36559311 -4.2957191 -0.36559311 0 0 Z " fill="#FBFBFB" transform="translate(287.9375,73.25)"/>
<path d="M0 0 C0.680625 0.2475 1.36125 0.495 2.0625 0.75 C3.0525 4.215 3.0525 4.215 4.0625 7.75 C4.784375 7.069375 5.50625 6.38875 6.25 5.6875 C9.0625 3.75 9.0625 3.75 11.73828125 4.12890625 C12.88876953 4.43634766 12.88876953 4.43634766 14.0625 4.75 C14.08119141 5.47590332 14.09988281 6.20180664 14.11914062 6.94970703 C14.22699131 10.26082887 14.39414333 13.56642537 14.5625 16.875 C14.59085938 18.01710938 14.61921875 19.15921875 14.6484375 20.3359375 C14.87707804 26.57102925 14.87707804 26.57102925 17.87548828 31.79907227 C19.98476597 33.40677096 19.98476597 33.40677096 22.18212891 34.62768555 C25.20567748 36.43231458 25.94876541 38.47067037 27.0625 41.75 C27.29635585 43.54106065 27.52504791 45.3327993 27.75 47.125 C28.46359455 51.79178204 29.67201923 53.80507688 33.1875 56.9375 C37.660332 60.93779237 37.660332 60.93779237 37.875 64.75 C37.16439656 70.88046019 33.63204039 75.89928477 28.875 79.6875 C22.28563599 83.50037471 13.45215526 82.66315576 6.0625 82.75 C4.96838306 90.32734179 4.02880718 97.8723333 3.41088867 105.50366211 C1.96831103 122.83508941 -2.10657708 140.08815416 -9.9375 155.75 C-10.09245763 157.99974161 -10.18760928 160.25371536 -10.25390625 162.5078125 C-10.2850779 163.50238968 -10.2850779 163.50238968 -10.31687927 164.51705933 C-10.38229231 166.63626694 -10.44122105 168.755599 -10.5 170.875 C-10.54319309 172.31121081 -10.58680764 173.74740902 -10.63085938 175.18359375 C-10.73796499 178.70559594 -10.83925575 182.22773825 -10.9375 185.75 C-10.01066406 185.88277344 -9.08382812 186.01554688 -8.12890625 186.15234375 C-3.47883277 187.02316534 -0.44971604 188.88850572 2.55078125 192.58203125 C5.2789133 196.60122297 7.01371825 199.75610418 6.0625 204.75 C2.56913182 207.07891212 1.20242135 206.98551143 -2.91796875 206.9453125 C-4.66303711 206.93564453 -4.66303711 206.93564453 -6.44335938 206.92578125 C-7.65830078 206.90902344 -8.87324219 206.89226562 -10.125 206.875 C-11.35154297 206.86597656 -12.57808594 206.85695313 -13.84179688 206.84765625 C-16.87389295 206.82406017 -19.90559938 206.79113841 -22.9375 206.75 C-24.44943177 203.08714007 -25.45819988 199.63613557 -26.25 195.75 C-27.58127609 189.74901702 -29.53250995 184.21253622 -31.8515625 178.52734375 C-32.73770889 176.26097654 -33.4255011 174.12226159 -33.9375 171.75 C-34.5975 171.75 -35.2575 171.75 -35.9375 171.75 C-36.123125 172.575 -36.30875 173.4 -36.5 174.25 C-38.75163664 179.73224574 -42.78852273 183.60102273 -46.9375 187.75 C-46.195 188.12125 -45.4525 188.4925 -44.6875 188.875 C-40.87466641 191.47465927 -38.5651526 194.30761272 -37.3984375 198.84765625 C-37.0625 201 -37.0625 201 -36.9375 204.75 C-39.51087514 207.32337514 -41.24480349 207.00289728 -44.75344849 207.04327393 C-45.56740082 207.04236755 -46.38135315 207.04146118 -47.2199707 207.04052734 C-48.0772023 207.04724457 -48.9344339 207.05396179 -49.81764221 207.06088257 C-52.66624689 207.07995421 -55.51461659 207.08379296 -58.36328125 207.0859375 C-60.34710283 207.09236483 -62.33092346 207.09909314 -64.31474304 207.10610962 C-68.48532299 207.11810931 -72.65582001 207.12178826 -76.82641602 207.12060547 C-82.14109644 207.12040344 -87.4552351 207.14757256 -92.76978779 207.18214989 C-96.87508014 207.20453301 -100.98024518 207.20843934 -105.08559227 207.20738602 C-107.04258254 207.20972995 -108.99957697 207.21848458 -110.95650673 207.23405075 C-127.85666354 207.35576301 -141.20324098 205.73535723 -154.12109375 193.71875 C-165.19311192 182.16533974 -169.59589463 167.06429123 -169.55712891 151.31835938 C-168.91522551 136.65559142 -159.77351774 123.42667989 -152.82421875 110.96875 C-145.01318757 98.08763265 -145.01318757 98.08763265 -141.75 83.8125 C-141.73582031 82.95785156 -141.72164062 82.10320312 -141.70703125 81.22265625 C-141.9606835 78.50126854 -142.37820904 76.99268392 -143.9375 74.75 C-145.99209162 73.4494536 -145.99209162 73.4494536 -148.375 72.5625 C-149.15746094 72.23894531 -149.93992188 71.91539062 -150.74609375 71.58203125 C-152.46166128 70.93066604 -154.19660835 70.33029722 -155.9375 69.75 C-155.9375 67.77 -155.9375 65.79 -155.9375 63.75 C-148.89563615 64.00606778 -144.32940726 66.20888678 -138.9375 70.75 C-134.58487926 75.74300632 -134.45004888 80.93197076 -134.55078125 87.37109375 C-135.81688016 98.43347313 -142.96082313 108.47127911 -148.45947266 117.90625 C-157.61720582 133.68220097 -164.97016927 148.17778907 -160.8125 166.875 C-157.27096437 179.22919404 -151.50159599 189.10849371 -140.25 195.6875 C-137.17265368 197.34712918 -134.38629136 198.17620809 -130.9375 198.75 C-131.73713447 194.17477186 -133.24264327 190.08451278 -134.90234375 185.76171875 C-137.65537938 177.7519434 -138.29243846 170.75836762 -138.25 162.3125 C-138.24508545 161.16104492 -138.2401709 160.00958984 -138.23510742 158.82324219 C-137.98624931 140.57364695 -134.46728498 123.03768782 -123.9375 107.75 C-123.42574219 106.99203125 -122.91398437 106.2340625 -122.38671875 105.453125 C-111.65930088 90.60371602 -95.04131739 82.05460374 -77.9375 76.75 C-76.968125 76.44191406 -75.99875 76.13382812 -75 75.81640625 C-68.67860592 73.93974238 -62.51370185 73.11887786 -55.9375 72.75 C-55.82535156 71.5846875 -55.71320313 70.419375 -55.59765625 69.21875 C-55.06669634 65.01539431 -53.91011301 61.18970601 -52.375 57.25 C-52.11323975 56.56856934 -51.85147949 55.88713867 -51.58178711 55.18505859 C-47.17777639 44.01047367 -41.99023983 31.80389127 -33.9375 22.75 C-33.2775 22.75 -32.6175 22.75 -31.9375 22.75 C-31.9375 22.09 -31.9375 21.43 -31.9375 20.75 C-27.59698694 16.00509132 -22.07768414 12.3014532 -16.875 8.5625 C-16.2979834 8.14677734 -15.7209668 7.73105469 -15.12646484 7.30273438 C-4.2957191 -0.36559311 -4.2957191 -0.36559311 0 0 Z M-27.546875 25.27734375 C-39.49468031 37.63512277 -45.37156965 54.5037827 -49.9375 70.75 C-50.31450661 72.07048325 -50.69209003 73.39080199 -51.0703125 74.7109375 C-51.35648437 75.71382813 -51.64265625 76.71671875 -51.9375 77.75 C-52.81148437 77.88462646 -52.81148437 77.88462646 -53.703125 78.02197266 C-79.52017387 82.09647939 -103.49569721 90.00642587 -119.9375 111.75 C-131.5394855 130.58707669 -135.16437721 155.60130393 -131.25 177.28515625 C-129.17307081 185.6534501 -125.94170382 191.74159237 -121.9375 199.75 C-96.1975 199.75 -70.4575 199.75 -43.9375 199.75 C-46.43806593 194.77378257 -46.43806593 194.77378257 -49.9375 192.75 C-52.35463479 192.3836141 -52.35463479 192.3836141 -55.04296875 192.3359375 C-56.51733398 192.27792969 -56.51733398 192.27792969 -58.02148438 192.21875 C-59.04564453 192.1878125 -60.06980469 192.156875 -61.125 192.125 C-62.67864258 192.06699219 -62.67864258 192.06699219 -64.26367188 192.0078125 C-66.82143622 191.91351704 -69.37919287 191.82791798 -71.9375 191.75 C-72.9275 189.77 -72.9275 189.77 -73.9375 187.75 C-73.21046875 187.73582031 -72.4834375 187.72164062 -71.734375 187.70703125 C-62.45883104 187.2670375 -54.11884991 185.24868053 -46.875 179.1875 C-45.9159375 177.9809375 -45.9159375 177.9809375 -44.9375 176.75 C-44.380625 176.110625 -43.82375 175.47125 -43.25 174.8125 C-39.68186317 169.20542785 -39.1246534 163.23270252 -39.9375 156.75 C-40.90138361 153.80103719 -42.24672506 151.34214833 -43.9375 148.75 C-44.618125 147.698125 -45.29875 146.64625 -46 145.5625 C-51.2619009 139.6022604 -60.37927039 137.20860571 -67.9375 135.75 C-69.2575 135.75 -70.5775 135.75 -71.9375 135.75 C-71.9375 133.77 -71.9375 131.79 -71.9375 129.75 C-46.51823034 135.39522242 -46.51823034 135.39522242 -39.6015625 145.75 C-37.36674064 149.47039709 -35.78652559 152.77284304 -35.0625 157.0625 C-34.32648924 161.10705434 -32.765571 163.99682897 -30.625 167.5 C-24.43122854 177.65984549 -21.35656298 188.16396151 -18.9375 199.75 C-13.3275 199.75 -7.7175 199.75 -1.9375 199.75 C-3.1111655 195.055338 -3.90086455 194.24068996 -7.9375 191.75 C-9.98331993 191.32052263 -9.98331993 191.32052263 -12.12109375 191.13671875 C-13.38050781 191.00910156 -14.63992188 190.88148438 -15.9375 190.75 C-16.06230532 185.68213607 -16.15239859 180.61519162 -16.2121582 175.54614258 C-16.23710268 173.82658276 -16.27107143 172.10712676 -16.31469727 170.38793945 C-16.57269917 159.94948589 -16.32350427 152.00962673 -10.9375 142.75 C-5.00419891 129.3879403 -2.79923321 114.27434517 -2.23193359 99.74975586 C-1.96525836 92.97080603 -0.99595315 86.45353665 0.0625 79.75 C-7.5275 77.11 -15.1175 74.47 -22.9375 71.75 C-22.6075 70.43 -22.2775 69.11 -21.9375 67.75 C-15.49756839 68.97277182 -9.11808189 70.62354392 -2.9375 72.8125 C5.11457066 75.32877208 17.09215504 78.54462956 25.08203125 74.8046875 C28.26478883 72.34211594 30.04796476 69.60523391 31.0625 65.75 C31.0625 64.76 31.0625 63.77 31.0625 62.75 C29.4228279 61.38360658 27.75139872 60.0550581 26.0625 58.75 C22.66701456 55.54315264 21.86126238 53.34146604 21.5625 48.8125 C21.22979748 44.04140429 20.36446032 41.39062291 17.0625 37.75 C12.22420114 33.93969998 6.80143136 31.6832813 1.06640625 29.546875 C-0.9375 28.75 -0.9375 28.75 -1.9375 27.75 C-2.09405027 26.26361008 -2.18816943 24.77050873 -2.25390625 23.27734375 C-2.29580078 22.37822266 -2.33769531 21.47910156 -2.38085938 20.55273438 C-2.42017578 19.60720703 -2.45949219 18.66167969 -2.5 17.6875 C-2.54318359 16.73810547 -2.58636719 15.78871094 -2.63085938 14.81054688 C-2.73729276 12.45718647 -2.83931008 10.10371646 -2.9375 7.75 C-10.51931396 7.75 -22.26508433 20.28126398 -27.546875 25.27734375 Z " fill="#101010" transform="translate(287.9375,73.25)"/>
<path d="M0 0 C7.04186385 0.25606778 11.60809274 2.45888678 17 7 C21.35262074 11.99300632 21.48745112 17.18197076 21.38671875 23.62109375 C20.12061984 34.68347313 12.97667687 44.72127911 7.47802734 54.15625 C-1.67970582 69.93220097 -9.03266927 84.42778907 -4.875 103.125 C-1.33346437 115.47919404 4.43590401 125.35849371 15.6875 131.9375 C18.76484632 133.59712918 21.55120864 134.42620809 25 135 C24.20036553 130.42477186 22.69485673 126.33451278 21.03515625 122.01171875 C18.28212062 114.0019434 17.64506154 107.00836762 17.6875 98.5625 C17.69241455 97.41104492 17.6973291 96.25958984 17.70239258 95.07324219 C17.98206025 74.56427935 22.42017202 53.34718735 37 38 C39.26149046 36.57849171 40.35243816 36 43 36 C43.66 34.68 44.32 33.36 45 32 C46.32 32.33 47.64 32.66 49 33 C47.43798 36.748848 45.07706629 39.12153251 42.25 42 C26.88859089 58.35567507 24.34890619 81.41228754 24.68359375 102.8671875 C25.08050748 113.73166293 28.22467088 123.20874945 33.046875 132.92578125 C34 135 34 135 34 137 C59.08 137 84.16 137 110 137 C110 138.65 110 140.3 110 142 C98.69900311 142.09292214 87.39809801 142.16387754 76.09679604 142.20724869 C70.84840976 142.22807091 65.60028601 142.25629017 60.35205078 142.30175781 C55.28160416 142.34540735 50.21140913 142.36917741 45.14078903 142.37950897 C43.2119997 142.38686615 41.28322321 142.40123264 39.35454178 142.42292023 C23.30808506 142.59608633 13.0589745 140.54365818 1.09375 129.19140625 C-9.58329331 117.92899872 -13.65709834 102.78776037 -13.61962891 87.56835938 C-12.97772551 72.90559142 -3.83601774 59.67667989 3.11328125 47.21875 C10.92431243 34.33763265 10.92431243 34.33763265 14.1875 20.0625 C14.20167969 19.20785156 14.21585938 18.35320312 14.23046875 17.47265625 C13.9768165 14.75126854 13.55929096 13.24268392 12 11 C9.94540838 9.6994536 9.94540838 9.6994536 7.5625 8.8125 C6.78003906 8.48894531 5.99757812 8.16539062 5.19140625 7.83203125 C3.47583872 7.18066604 1.74089165 6.58029722 0 6 C0 4.02 0 2.04 0 0 Z " fill="#0D0D0D" transform="translate(132,137)"/>
<path d="M0 0 C10.40255289 0.25830267 21.1494558 3.45364864 29.28515625 10.14453125 C33.75926424 14.98553648 36.81606788 20.94499824 37.9375 27.4375 C38.83301834 32.58216146 41.49119922 36.40854207 44.1875 40.8125 C49.19187587 49.61329894 53 59.82396715 53 70 C58.61 70 64.22 70 70 70 C70.33 69.34 70.66 68.68 71 68 C71 68.99 71 69.98 71 71 C65.06 71.33 59.12 71.66 53 72 C52.505 73.485 52.505 73.485 52 75 C59.59 75.33 67.18 75.66 75 76 C75 76.33 75 76.66 75 77 C66.42 77 57.84 77 49 77 C47.45462209 73.13655522 46.50394538 70.00709387 45.6875 66 C44.35622391 59.99901702 42.40499005 54.46253622 40.0859375 48.77734375 C39.19979111 46.51097654 38.5119989 44.37226159 38 42 C37.34 42 36.68 42 36 42 C35.7215625 43.2375 35.7215625 43.2375 35.4375 44.5 C33.18586336 49.98224574 29.14897727 53.85102273 25 58 C25.7425 58.37125 26.485 58.7425 27.25 59.125 C31.06283359 61.72465927 33.3723474 64.55761272 34.5390625 69.09765625 C34.875 71.25 34.875 71.25 35 75 C32.39319975 77.60680025 30.58931355 77.23599965 27.03964233 77.24884033 C26.20526642 77.24164978 25.3708905 77.23445923 24.51123047 77.22705078 C23.63311707 77.22734283 22.75500366 77.22763489 21.85028076 77.22793579 C18.93915019 77.22653912 16.02827353 77.21096213 13.1171875 77.1953125 C11.10222514 77.19158357 9.08726096 77.18873603 7.07229614 77.18673706 C1.76217668 77.17909118 -3.54783382 77.1594345 -8.85791016 77.1373291 C-14.27374803 77.11689121 -19.68960345 77.10773975 -25.10546875 77.09765625 C-35.73702711 77.07618951 -46.3685045 77.04204207 -57 77 C-57 76.67 -57 76.34 -57 76 C-29.61 76 -2.22 76 26 76 C26 74.35 26 72.7 26 71 C0.92 71 -24.16 71 -50 71 C-50 70.67 -50 70.34 -50 70 C-24.59 69.67 0.82 69.34 27 69 C22.39398216 63.86367689 22.39398216 63.86367689 16.76953125 63.36328125 C15.80208984 63.34330078 14.83464844 63.32332031 13.83789062 63.30273438 C12.34032227 63.30756836 12.34032227 63.30756836 10.8125 63.3125 C8.81892551 63.29596109 6.82539565 63.2716151 4.83203125 63.23828125 C3.95264893 63.23868408 3.0732666 63.23908691 2.16723633 63.23950195 C0 63 0 63 -2 61 C-2 60.01 -2 59.02 -2 58 C0.31058459 56.8447077 1.80289916 56.86653531 4.375 56.75 C11.95190896 56.04619423 18.91571219 53.31321586 25 48.75 C29.40385708 42.69469652 31.71954718 36.98708515 31.390625 29.421875 C30.74859443 25.44128549 29.15247513 22.36843476 27 19 C26.484375 18.113125 25.96875 17.22625 25.4375 16.3125 C18.669986 9.892038 8.86980357 7.90398925 0 6 C0 4.02 0 2.04 0 0 Z " fill="#0B0B0B" transform="translate(216,203)"/>
<path d="M0 0 C7.04186385 0.25606778 11.60809274 2.45888678 17 7 C21.35262074 11.99300632 21.48745112 17.18197076 21.38671875 23.62109375 C20.12061984 34.68347313 12.97667687 44.72127911 7.47802734 54.15625 C-1.67970582 69.93220097 -9.03266927 84.42778907 -4.875 103.125 C-1.33346437 115.47919404 4.43590401 125.35849371 15.6875 131.9375 C18.76484632 133.59712918 21.55120864 134.42620809 25 135 C24.67 136.32 24.34 137.64 24 139 C24.66 139 25.32 139 26 139 C26 139.99 26 140.98 26 142 C14.93288416 141.27823158 6.34180783 134.97691231 -1 127 C-5.5083731 120.9243384 -8.58727122 114.14538909 -11 107 C-11.226875 106.3296875 -11.45375 105.659375 -11.6875 104.96875 C-17.79477004 82.91471929 -7.29597335 65.87930326 3.11328125 47.21875 C10.92431243 34.33763265 10.92431243 34.33763265 14.1875 20.0625 C14.20167969 19.20785156 14.21585938 18.35320312 14.23046875 17.47265625 C13.9768165 14.75126854 13.55929096 13.24268392 12 11 C9.94540838 9.6994536 9.94540838 9.6994536 7.5625 8.8125 C6.78003906 8.48894531 5.99757812 8.16539062 5.19140625 7.83203125 C3.47583872 7.18066604 1.74089165 6.58029722 0 6 C0 4.02 0 2.04 0 0 Z " fill="#0E0E0E" transform="translate(132,137)"/>
<path d="M0 0 C2 3 2 3 3 5 C3.721875 4.319375 4.44375 3.63875 5.1875 2.9375 C8 1 8 1 10.67578125 1.37890625 C11.44277344 1.58386719 12.20976562 1.78882812 13 2 C13.06731323 3.12027588 13.06731323 3.12027588 13.13598633 4.26318359 C13.34681673 7.63489474 13.57937339 11.00476024 13.8125 14.375 C13.88275391 15.550625 13.95300781 16.72625 14.02539062 17.9375 C14.10595703 19.05898437 14.18652344 20.18046875 14.26953125 21.3359375 C14.33760986 22.37282715 14.40568848 23.4097168 14.47583008 24.47802734 C14.76507502 27.3502126 14.76507502 27.3502126 18 29 C18.6875 31.625 18.6875 31.625 19 34 C16.1552301 35.17057517 15.11265716 35.04456077 12.1953125 33.890625 C10.67550781 33.07851562 10.67550781 33.07851562 9.125 32.25 C8.11695313 31.71890625 7.10890625 31.1878125 6.0703125 30.640625 C5.05710937 30.09921875 4.04390625 29.5578125 3 29 C1.90429688 28.45859375 0.80859375 27.9171875 -0.3203125 27.359375 C-3 26 -3 26 -4 25 C-4.13278578 23.47492454 -4.20329065 21.94430925 -4.24609375 20.4140625 C-4.29540039 19.01800781 -4.29540039 19.01800781 -4.34570312 17.59375 C-4.40665608 15.62250564 -4.46397748 13.65114548 -4.51757812 11.6796875 C-4.55173828 10.74640625 -4.58589844 9.813125 -4.62109375 8.8515625 C-4.6461499 7.99385254 -4.67120605 7.13614258 -4.69702148 6.25244141 C-4.86999599 3.71960899 -4.86999599 3.71960899 -7 1 C-6.401875 1.20625 -5.80375 1.4125 -5.1875 1.625 C-2.71549154 2.30671915 -2.71549154 2.30671915 0 0 Z " fill="#0F0F0F" transform="translate(289,76)"/>
<path d="M0 0 C0.50674255 0.32342377 1.01348511 0.64684753 1.5355835 0.98007202 C4.82751472 2.34247677 7.92471039 2.30797047 11.43066406 2.31884766 C12.17251953 2.32889328 12.914375 2.3389389 13.67871094 2.34928894 C16.12434127 2.38011449 18.56986216 2.39715415 21.015625 2.4140625 C22.71385642 2.43277467 24.41207854 2.45234812 26.11029053 2.4727478 C30.57526165 2.52406987 35.04026292 2.56369517 39.50537109 2.60089111 C44.06355242 2.64093029 48.62160835 2.69202303 53.1796875 2.7421875 C62.11970357 2.83894767 71.05979046 2.92335218 80 3 C80 4.65 80 6.3 80 8 C52.28 8 24.56 8 -4 8 C-4 7.01 -4 6.02 -4 5 C-4.66 5 -5.32 5 -6 5 C-5.67 4.01 -5.34 3.02 -5 2 C-3.35 2.33 -1.7 2.66 0 3 C0 2.01 0 1.02 0 0 Z " fill="#010101" transform="translate(162,271)"/>
<path d="M0 0 C0.99 0 1.98 0 3 0 C6.87598508 4.55998245 7.80625618 8.18768549 8 14 C5.39319975 16.60680025 3.58931355 16.23599965 0.03964233 16.24884033 C-0.79473358 16.24164978 -1.6291095 16.23445923 -2.48876953 16.22705078 C-3.36688293 16.22734283 -4.24499634 16.22763489 -5.14971924 16.22793579 C-8.06084981 16.22653912 -10.97172647 16.21096213 -13.8828125 16.1953125 C-15.89777486 16.19158357 -17.91273904 16.18873603 -19.92770386 16.18673706 C-25.23782332 16.17909118 -30.54783382 16.1594345 -35.85791016 16.1373291 C-41.27374803 16.11689121 -46.68960345 16.10773975 -52.10546875 16.09765625 C-62.73702711 16.07618951 -73.3685045 16.04204207 -84 16 C-84 15.67 -84 15.34 -84 15 C-56.61 15 -29.22 15 -1 15 C-1 13.35 -1 11.7 -1 10 C-26.08 10 -51.16 10 -77 10 C-77 9.67 -77 9.34 -77 9 C-51.59 8.67 -26.18 8.34 0 8 C0 5.36 0 2.72 0 0 Z " fill="#505050" transform="translate(243,264)"/>
<path d="M0 0 C0.76699219 0.20496094 1.53398437 0.40992187 2.32421875 0.62109375 C3.03835154 8.64233527 3.46947372 16.56751237 3.32421875 24.62109375 C2.66421875 24.95109375 2.00421875 25.28109375 1.32421875 25.62109375 C0.33421875 25.29109375 -0.65578125 24.96109375 -1.67578125 24.62109375 C-2.00578125 25.28109375 -2.33578125 25.94109375 -2.67578125 26.62109375 C-2.67578125 25.63109375 -2.67578125 24.64109375 -2.67578125 23.62109375 C-3.33578125 23.62109375 -3.99578125 23.62109375 -4.67578125 23.62109375 C-5.00578125 22.96109375 -5.33578125 22.30109375 -5.67578125 21.62109375 C-6.66578125 21.29109375 -7.65578125 20.96109375 -8.67578125 20.62109375 C-8.67578125 17.98109375 -8.67578125 15.34109375 -8.67578125 12.62109375 C-8.01578125 12.62109375 -7.35578125 12.62109375 -6.67578125 12.62109375 C-6.67578125 11.30109375 -6.67578125 9.98109375 -6.67578125 8.62109375 C-5.02578125 8.29109375 -3.37578125 7.96109375 -1.67578125 7.62109375 C-4.34969365 6.72978962 -6.91301948 6.14377841 -9.67578125 5.62109375 C-9.34578125 4.30109375 -9.01578125 2.98109375 -8.67578125 1.62109375 C-8.34578125 2.28109375 -8.01578125 2.94109375 -7.67578125 3.62109375 C-6.95390625 2.94046875 -6.23203125 2.25984375 -5.48828125 1.55859375 C-2.67578125 -0.37890625 -2.67578125 -0.37890625 0 0 Z " fill="#121212" transform="translate(299.67578125,77.37890625)"/>
<path d="M0 0 C5.06550086 7.59825129 8 16.90248133 8 26 C13.61 26 19.22 26 25 26 C25.33 25.34 25.66 24.68 26 24 C26 24.99 26 25.98 26 27 C20.06 27.33 14.12 27.66 8 28 C7.67 28.99 7.34 29.98 7 31 C14.59 31.33 22.18 31.66 30 32 C30 32.33 30 32.66 30 33 C21.42 33 12.84 33 4 33 C2.43947211 29.09868026 1.42941227 25.8053862 0.5625 21.75 C-0.49949481 16.94651579 -1.78037771 12.39411673 -3.546875 7.8046875 C-4 6 -4 6 -3 3 C-2.34 3 -1.68 3 -1 3 C-0.67 2.01 -0.34 1.02 0 0 Z " fill="#151515" transform="translate(261,247)"/>
<path d="M0 0 C1.32 0.33 2.64 0.66 4 1 C6.11457422 5.22914844 5.18585828 10.77899806 5.18530273 15.43115234 C5.18749158 17.49207127 5.20565983 19.5524569 5.22460938 21.61328125 C5.22654297 22.90621094 5.22847656 24.19914062 5.23046875 25.53125 C5.23457764 26.72298828 5.23868652 27.91472656 5.24291992 29.14257812 C5 32 5 32 3 34 C2.01 34 1.02 34 0 34 C0 22.78 0 11.56 0 0 Z " fill="#020202" transform="translate(272,226)"/>
<path d="M0 0 C0.33 0 0.66 0 1 0 C1.33 2.31 1.66 4.62 2 7 C2.67546875 7.09796875 3.3509375 7.1959375 4.046875 7.296875 C11.35150784 8.52135103 11.35150784 8.52135103 14.625 10.9375 C16 13 16 13 16 16 C10.39 16 4.78 16 -1 16 C-1.94056912 9.88630069 -2.10399913 5.81693878 0 0 Z " fill="#F4F4F4" transform="translate(270,257)"/>
<path d="M0 0 C0.66 0 1.32 0 2 0 C2 0.66 2 1.32 2 2 C2.66 2.33 3.32 2.66 4 3 C4 3.66 4 4.32 4 5 C4.66 5 5.32 5 6 5 C6 6.65 6 8.3 6 10 C-2.91 10 -11.82 10 -21 10 C-18.91793894 6.87690841 -18.40793772 6.18487901 -15 5 C-12.37573495 4.86041143 -9.86707253 4.81068631 -7.25 4.875 C-6.55261719 4.88402344 -5.85523438 4.89304687 -5.13671875 4.90234375 C-3.42433042 4.92580112 -1.71211996 4.96166896 0 5 C-0.185625 4.360625 -0.37125 3.72125 -0.5625 3.0625 C-0.706875 2.381875 -0.85125 1.70125 -1 1 C-0.67 0.67 -0.34 0.34 0 0 Z " fill="#030303" transform="translate(287,269)"/>
<path d="M0 0 C3.72732053 1.19806731 5.35831156 3.46193674 7.18359375 6.84765625 C8.67028028 10.76710255 8.83269186 14.84239266 9 19 C8.34 18.67 7.68 18.34 7 18 C6.67 18.99 6.34 19.98 6 21 C4.68 21 3.36 21 2 21 C1.96261719 20.33613281 1.92523438 19.67226562 1.88671875 18.98828125 C1.50473895 13.85776831 1.07822952 10.28275411 -2 6 C-2 5.34 -2 4.68 -2 4 C-1.01 4 -0.02 4 1 4 C0.67 2.68 0.34 1.36 0 0 Z " fill="#181818" transform="translate(307,106)"/>
<path d="M0 0 C-1.3759199 4.46392194 -3.33152884 6.48116543 -7 9.3125 C-7.886875 10.00988281 -8.77375 10.70726563 -9.6875 11.42578125 C-12 13 -12 13 -14 13 C-14 12.34 -14 11.68 -14 11 C-14.99 10.67 -15.98 10.34 -17 10 C-12.39997503 4.04606698 -8.14213653 -0.71842381 0 0 Z M-18 10 C-17.67 10.99 -17.34 11.98 -17 13 C-17.66 12.67 -18.32 12.34 -19 12 C-18.67 11.34 -18.34 10.68 -18 10 Z " fill="#121212" transform="translate(275,84)"/>
<path d="M0 0 C0 2.31 0 4.62 0 7 C2.64 7 5.28 7 8 7 C8 7.66 8 8.32 8 9 C6.68212715 10.02028865 5.34789347 11.01971384 4 12 C3.67 12.66 3.34 13.32 3 14 C2.38125 13.67 1.7625 13.34 1.125 13 C-0.91018344 11.85806765 -0.91018344 11.85806765 -3 12 C-3.99 12.495 -3.99 12.495 -5 13 C-5.07347656 12.07767578 -5.07347656 12.07767578 -5.1484375 11.13671875 C-5.22320312 10.32847656 -5.29796875 9.52023438 -5.375 8.6875 C-5.44460938 7.88699219 -5.51421875 7.08648437 -5.5859375 6.26171875 C-5.89564426 3.72775559 -5.89564426 3.72775559 -8 1 C-7.401875 1.20625 -6.80375 1.4125 -6.1875 1.625 C-3.18627465 2.13949577 -2.72415615 0 0 0 Z " fill="#090909" transform="translate(290,76)"/>
<path d="M0 0 C0.33 0.99 0.66 1.98 1 3 C-4.94 3.33 -10.88 3.66 -17 4 C-17.33 4.99 -17.66 5.98 -18 7 C-10.41 7.33 -2.82 7.66 5 8 C5 8.33 5 8.66 5 9 C0.68751391 9.02886537 -3.62494762 9.04675255 -7.9375 9.0625 C-9.16919922 9.07087891 -10.40089844 9.07925781 -11.66992188 9.08789062 C-12.83974609 9.09111328 -14.00957031 9.09433594 -15.21484375 9.09765625 C-16.84087524 9.10551147 -16.84087524 9.10551147 -18.49975586 9.11352539 C-21 9 -21 9 -22 8 C-22.04063832 6.33382885 -22.042721 4.66611905 -22 3 C-21.34 3 -20.68 3 -20 3 C-19.67 2.34 -19.34 1.68 -19 1 C-12.73 1.33 -6.46 1.66 0 2 C0 1.34 0 0.68 0 0 Z " fill="#4C4C4C" transform="translate(286,271)"/>
<path d="M0 0 C0.53625 0.680625 1.0725 1.36125 1.625 2.0625 C4.35076561 5.43384168 7.16483178 8.72065543 10 12 C9.01 12 8.02 12 7 12 C7 11.34 7 10.68 7 10 C6.01 10 5.02 10 4 10 C3.67 10.99 3.34 11.98 3 13 C-2.78706199 7.51752022 -2.78706199 7.51752022 -4 4 C-3.67 3.34 -3.34 2.68 -3 2 C-2.34 2 -1.68 2 -1 2 C-0.67 1.34 -0.34 0.68 0 0 Z " fill="#101010" transform="translate(131,253)"/>
<path d="M0 0 C0.99 0 1.98 0 3 0 C3 0.66 3 1.32 3 2 C3.99 2.33 4.98 2.66 6 3 C6.33 5.97 6.66 8.94 7 12 C5.02 12.66 3.04 13.32 1 14 C0.04738513 9.23692563 -0.08333357 4.8333472 0 0 Z " fill="#0E0E0E" transform="translate(262,261)"/>
<path d="M0 0 C0.99 0 1.98 0 3 0 C3.40368295 6.45892714 2.5915262 11.06108578 0 17 C-1.87896957 14.88615923 -2.92925832 13.52348843 -3.3125 10.6875 C-2.34210526 2.34210526 -2.34210526 2.34210526 0 0 Z " fill="#0A0A0A" transform="translate(241,119)"/>
<path d="M0 0 C2.60018816 3.90028225 2.15085514 7.47434569 2 12 C-0.97 11.505 -0.97 11.505 -4 11 C-4 8.36 -4 5.72 -4 3 C-3.34 3 -2.68 3 -2 3 C-2 2.34 -2 1.68 -2 1 C-1.34 0.67 -0.68 0.34 0 0 Z " fill="#DFDFDF" transform="translate(295,87)"/>
<path d="M0 0 C-0.49831724 3.68754757 -1.10067643 5.60490662 -4 8 C-4.99 7.67 -5.98 7.34 -7 7 C-7.33 7.99 -7.66 8.98 -8 10 C-9.5625 11.6875 -9.5625 11.6875 -11 13 C-11.66 12.67 -12.32 12.34 -13 12 C-12.07425608 10.18146744 -11.13401005 8.37031117 -10.1875 6.5625 C-9.66542969 5.55316406 -9.14335937 4.54382813 -8.60546875 3.50390625 C-6.18615522 -0.26928103 -4.39793881 0 0 0 Z " fill="#111111" transform="translate(149,171)"/>
<path d="M0 0 C1.25 2.0625 1.25 2.0625 2 5 C0.95421827 7.60906369 -0.42644314 9.63966471 -2 12 C-2.99 11.01 -3.98 10.02 -5 9 C-4.34 8.67 -3.68 8.34 -3 8 C-3 7.34 -3 6.68 -3 6 C-4.98 6.99 -4.98 6.99 -7 8 C-4.73913043 0 -4.73913043 0 0 0 Z " fill="#161616" transform="translate(166,183)"/>
<path d="M0 0 C1.32 1.65 2.64 3.3 4 5 C2.68 6.65 1.36 8.3 0 10 C1.32 10 2.64 10 4 10 C3.34 11.32 2.68 12.64 2 14 C1.67 13.34 1.34 12.68 1 12 C0.01 11.67 -0.98 11.34 -2 11 C-3.1875 7.4375 -3.1875 7.4375 -4 4 C-2.66666667 2.66666667 -1.33333333 1.33333333 0 0 Z " fill="#111111" transform="translate(253,233)"/>
<path d="M0 0 C3.84938867 3.59276276 5.91873633 5.88714467 6.125 11.25 C6.08375 12.1575 6.0425 13.065 6 14 C5.67 12.68 5.34 11.36 5 10 C4.34 10 3.68 10 3 10 C2.67 10.66 2.34 11.32 2 12 C1.67 9.69 1.34 7.38 1 5 C-0.32 5.33 -1.64 5.66 -3 6 C-3.66 5.01 -4.32 4.02 -5 3 C-4.01 3 -3.02 3 -2 3 C-2 2.34 -2 1.68 -2 1 C-1.34 0.67 -0.68 0.34 0 0 Z " fill="#1E1E1E" transform="translate(288,264)"/>
<path d="M0 0 C1.32 0.33 2.64 0.66 4 1 C4 1.66 4 2.32 4 3 C4.66 3.33 5.32 3.66 6 4 C3.55319149 7.79255319 3.55319149 7.79255319 1 8.75 C-1 9 -1 9 -4 9 C-3.71125 8.443125 -3.4225 7.88625 -3.125 7.3125 C-1.9586747 4.91505355 -0.9660119 2.48403061 0 0 Z M-7 10 C-6.34 10.33 -5.68 10.66 -5 11 C-5.99 11 -6.98 11 -8 11 C-7.67 10.67 -7.34 10.34 -7 10 Z " fill="#0E0E0E" transform="translate(246,243)"/>
<path d="M0 0 C1.32 0.33 2.64 0.66 4 1 C2.5488197 4.38608737 0.99873134 6.81173659 -2 9 C-5.75 8.75 -5.75 8.75 -9 8 C-7.1875 6 -7.1875 6 -5 4 C-4.01 4 -3.02 4 -2 4 C-1.34 2.68 -0.68 1.36 0 0 Z " fill="#070707" transform="translate(177,169)"/>
<path d="M0 0 C0.33 0.99 0.66 1.98 1 3 C-1 6 -1 6 -3.625 6.6875 C-4.40875 6.790625 -5.1925 6.89375 -6 7 C-6 6.34 -6 5.68 -6 5 C-6.99 4.67 -7.98 4.34 -9 4 C-8.67 3.01 -8.34 2.02 -8 1 C-5.17884816 -0.07009208 -3.09455459 0 0 0 Z " fill="#0A0A0A" transform="translate(214,150)"/>
<path d="M0 0 C0.66 0 1.32 0 2 0 C1.67 1.32 1.34 2.64 1 4 C1.99 3.67 2.98 3.34 4 3 C4.33 3.66 4.66 4.32 5 5 C4.06553465 7.03144641 3.06775224 9.03533587 2 11 C1.34 10.67 0.68 10.34 0 10 C0 9.01 0 8.02 0 7 C-1.98 7.99 -1.98 7.99 -4 9 C-2.94124926 5.59687262 -1.99097846 2.98646769 0 0 Z " fill="#171717" transform="translate(131,192)"/>
<path d="M0 0 C1.5 1.125 1.5 1.125 3 3 C3.1875 6.1875 3.1875 6.1875 3 9 C2.67 8.34 2.34 7.68 2 7 C1.67 7.66 1.34 8.32 1 9 C0.01 8.67 -0.98 8.34 -2 8 C-3.1875 4.9375 -3.1875 4.9375 -4 2 C-2.68 1.34 -1.36 0.68 0 0 Z " fill="#070707" transform="translate(128,248)"/>
<path d="M0 0 C0.2535853 3.04302358 0.24049526 4.60646231 -1.375 7.25 C-3 9 -3 9 -5 10 C-5.309375 8.88625 -5.61875 7.7725 -5.9375 6.625 C-6.82326483 3.2054845 -6.82326483 3.2054845 -8 1 C-7.401875 1.20625 -6.80375 1.4125 -6.1875 1.625 C-3.18627465 2.13949577 -2.72415615 0 0 0 Z " fill="#030303" transform="translate(290,76)"/>
<path d="M0 0 C0.99 0 1.98 0 3 0 C3.66 0.99 4.32 1.98 5 3 C6.32 2.34 7.64 1.68 9 1 C10.32 2.65 11.64 4.3 13 6 C12.01 6 11.02 6 10 6 C10 5.34 10 4.68 10 4 C9.01 4 8.02 4 7 4 C6.67 4.99 6.34 5.98 6 7 C1.125 2.25 1.125 2.25 0 0 Z " fill="#1F1F1F" transform="translate(128,259)"/>
<path d="M0 0 C0.99 0.33 1.98 0.66 3 1 C2.01 1.33 1.02 1.66 0 2 C-0.33 2.99 -0.66 3.98 -1 5 C-1.65129797 6.34090759 -2.31513275 7.67592331 -3 9 C-3.99 9 -4.98 9 -6 9 C-7.33981486 9.3062434 -8.67511887 9.63451555 -10 10 C-6.9630085 6.18206783 -4.11954267 2.71022544 0 0 Z " fill="#1B1B1B" transform="translate(179,165)"/>
<path d="M0 0 C3.625 0.375 3.625 0.375 7 1 C7 1.33 7 1.66 7 2 C5.35 2 3.7 2 2 2 C2 3.32 2 4.64 2 6 C2.66 6.33 3.32 6.66 4 7 C2.02 7 0.04 7 -2 7 C-2.125 4.625 -2.125 4.625 -2 2 C-1.34 1.34 -0.68 0.68 0 0 Z " fill="#141414" transform="translate(274,258)"/>
<path d="M0 0 C0.99 0.33 1.98 0.66 3 1 C3.6875 3.0625 3.6875 3.0625 4 5 C2.02 5.99 2.02 5.99 0 7 C0 6.34 0 5.68 0 5 C-0.99 4.67 -1.98 4.34 -3 4 C-2.01 2.68 -1.02 1.36 0 0 Z M-4 4 C-3.67 4.99 -3.34 5.98 -3 7 C-3.66 6.67 -4.32 6.34 -5 6 C-4.67 5.34 -4.34 4.68 -4 4 Z " fill="#040404" transform="translate(261,90)"/>
<path d="M0 0 C1.0828125 0.37125 1.0828125 0.37125 2.1875 0.75 C1.8575 1.74 1.5275 2.73 1.1875 3.75 C0.5275 3.75 -0.1325 3.75 -0.8125 3.75 C-1.1425 4.41 -1.4725 5.07 -1.8125 5.75 C-3.7925 5.09 -5.7725 4.43 -7.8125 3.75 C-3.50480769 -0.31153846 -3.50480769 -0.31153846 0 0 Z " fill="#191919" transform="translate(287.8125,73.25)"/>
<path d="M0 0 C1.32 0 2.64 0 4 0 C3.67 1.32 3.34 2.64 3 4 C3.66 4 4.32 4 5 4 C5 4.99 5 5.98 5 7 C3.68 7 2.36 7 1 7 C-0.75 5 -0.75 5 -2 3 C-1.34 3 -0.68 3 0 3 C0 2.01 0 1.02 0 0 Z " fill="#171717" transform="translate(153,272)"/>
<path d="M0 0 C0 0.66 0 1.32 0 2 C-0.66 2 -1.32 2 -2 2 C-2 2.99 -2 3.98 -2 5 C-5.465 6.485 -5.465 6.485 -9 8 C-9 7.01 -9 6.02 -9 5 C-7.5390625 3.61328125 -7.5390625 3.61328125 -5.625 2.3125 C-4.68527344 1.65701172 -4.68527344 1.65701172 -3.7265625 0.98828125 C-2 0 -2 0 0 0 Z " fill="#E4E4E4" transform="translate(279,85)"/>
<path d="M0 0 C4.2742558 1.5830577 6.26531794 4.50568404 9 8 C7.33333333 8 5.66666667 8 4 8 C4 7.34 4 6.68 4 6 C3.34 5.67 2.68 5.34 2 5 C1.27840576 3.35636866 0.60648579 1.68949614 0 0 Z " fill="#EBEBEB" transform="translate(128,262)"/>
<path d="M0 0 C1.485 0.99 1.485 0.99 3 2 C3.66 2.33 4.32 2.66 5 3 C4.45276317 6.37462715 3.9451 8.08235 2 11 C0.95550089 7.86650268 1.06576355 7.01031744 2 4 C1.01 4 0.02 4 -1 4 C-0.67 2.68 -0.34 1.36 0 0 Z " fill="#191919" transform="translate(242,115)"/>
<path d="M0 0 C-0.75 2.4375 -0.75 2.4375 -2 5 C-4.125 5.8125 -4.125 5.8125 -6 6 C-6.66 4.35 -7.32 2.7 -8 1 C-5.07175348 0.02391783 -3.04386724 -0.08226668 0 0 Z " fill="#080808" transform="translate(275,84)"/>
<path d="M0 0 C1.32 0.66 2.64 1.32 4 2 C4 2.66 4 3.32 4 4 C3.34 4 2.68 4 2 4 C2 4.66 2 5.32 2 6 C0.68 6 -0.64 6 -2 6 C-1.125 1.125 -1.125 1.125 0 0 Z " fill="#0C0C0C" transform="translate(284,261)"/>
<path d="M0 0 C1.65 0.33 3.3 0.66 5 1 C4.67 1.66 4.34 2.32 4 3 C3.01 3 2.02 3 1 3 C0.67 3.66 0.34 4.32 0 5 C0.99 4.67 1.98 4.34 3 4 C3.33 4.99 3.66 5.98 4 7 C2.02 6.34 0.04 5.68 -2 5 C-1.34 3.35 -0.68 1.7 0 0 Z " fill="#232323" transform="translate(266,140)"/>
<path d="M0 0 C0.99 0 1.98 0 3 0 C3 0.66 3 1.32 3 2 C3.99 2.33 4.98 2.66 6 3 C5.01 3.99 4.02 4.98 3 6 C1.68 5.34 0.36 4.68 -1 4 C-0.67 2.68 -0.34 1.36 0 0 Z " fill="#090909" transform="translate(135,263)"/>
<path d="M0 0 C0.99 0.66 1.98 1.32 3 2 C2.67 3.32 2.34 4.64 2 6 C0.02 5.34 -1.96 4.68 -4 4 C-3 2 -3 2 0 0 Z " fill="#070707" transform="translate(256,239)"/>
<path d="M0 0 C1.32 0 2.64 0 4 0 C3.01 3.3 2.02 6.6 1 10 C0.34 9.34 -0.32 8.68 -1 8 C-0.96712417 5.27130593 -0.43602229 2.7033382 0 0 Z " fill="#E6E6E6" transform="translate(276,206)"/>
<path d="M0 0 C2.52588702 2.36292656 3.88820837 3.66462511 5 7 C3.35 8.32 1.7 9.64 0 11 C0.185625 9.9275 0.37125 8.855 0.5625 7.75 C0.9304568 4.59608454 1.04465343 2.90181508 0 0 Z " fill="#1D1D1D" transform="translate(245,214)"/>
<path d="M0 0 C1.32 0.66 2.64 1.32 4 2 C3 5 3 5 0.9375 6.1875 C0.298125 6.455625 -0.34125 6.72375 -1 7 C-1.66 6.01 -2.32 5.02 -3 4 C-2.34 3.67 -1.68 3.34 -1 3 C-0.67 2.01 -0.34 1.02 0 0 Z " fill="#191919" transform="translate(318,129)"/>
<path d="M0 0 C0 2.83967231 -0.40267181 5.23735711 -1 8 C-1.99 8 -2.98 8 -4 8 C-4.33 7.01 -4.66 6.02 -5 5 C-3.35 3.35 -1.7 1.7 0 0 Z " fill="#E1E1E1" transform="translate(263,96)"/>
<path d="M0 0 C0.66 0 1.32 0 2 0 C2.33 1.32 2.66 2.64 3 4 C1.02 4.66 -0.96 5.32 -3 6 C-3.33 4.68 -3.66 3.36 -4 2 C-3.34 1.67 -2.68 1.34 -2 1 C-2 1.66 -2 2.32 -2 3 C-1.34 3 -0.68 3 0 3 C0 2.01 0 1.02 0 0 Z " fill="#161616" transform="translate(247,268)"/>
<path d="M0 0 C0.66 0.33 1.32 0.66 2 1 C1.01 2.98 0.02 4.96 -1 7 C-2.32 6.34 -3.64 5.68 -5 5 C-3.35 3.35 -1.7 1.7 0 0 Z " fill="#E1E1E1" transform="translate(245,256)"/>
<path d="M0 0 C1.32 0 2.64 0 4 0 C4.33 0.99 4.66 1.98 5 3 C4.34 3.66 3.68 4.32 3 5 C2.01 5 1.02 5 0 5 C0 3.35 0 1.7 0 0 Z " fill="#060606" transform="translate(132,138)"/>
<path d="M0 0 C0.33 0.99 0.66 1.98 1 3 C1.66 3 2.32 3 3 3 C2.34 5.31 1.68 7.62 1 10 C0.67 10 0.34 10 0 10 C-1.125 2.25 -1.125 2.25 0 0 Z " fill="#E7E7E7" transform="translate(316,116)"/>
<path d="M0 0 C0.99 0.33 1.98 0.66 3 1 C2 3 2 3 -1 5 C-1 1 -1 1 0 0 Z M-5 5 C-4.34 5.33 -3.68 5.66 -3 6 C-3.99 6 -4.98 6 -6 6 C-5.67 5.67 -5.34 5.34 -5 5 Z " fill="#1E1E1E" transform="translate(244,248)"/>
<path d="M0 0 C1.32 0.33 2.64 0.66 4 1 C3.01 1.495 3.01 1.495 2 2 C1.67 2.99 1.34 3.98 1 5 C-0.5625 6.6875 -0.5625 6.6875 -2 8 C-2.66 7.67 -3.32 7.34 -4 7 C-2.68 4.69 -1.36 2.38 0 0 Z " fill="#1A1A1A" transform="translate(140,176)"/>
<path d="M0 0 C-0.66 1.32 -1.32 2.64 -2 4 C-2.99 4 -3.98 4 -5 4 C-5.33 2.68 -5.66 1.36 -6 0 C-3 -1 -3 -1 0 0 Z " fill="#050505" transform="translate(187,164)"/>
<path d="M0 0 C2.0625 0.4375 2.0625 0.4375 4 1 C4 1.99 4 2.98 4 4 C-0.455 3.01 -0.455 3.01 -5 2 C-3.68 1.67 -2.36 1.34 -1 1 C-0.67 0.67 -0.34 0.34 0 0 Z " fill="#CECECE" transform="translate(276,140)"/>
<path d="M0 0 C0.99 0.33 1.98 0.66 3 1 C2.43628586 4.26954202 1.50037734 5.82575883 -1 8 C-1.125 2.25 -1.125 2.25 0 0 Z " fill="#181818" transform="translate(255,99)"/>
<path d="M0 0 C0.66 0.33 1.32 0.66 2 1 C1.02391783 3.92824652 -0.10786631 5.61426621 -2 8 C-2.66 7.67 -3.32 7.34 -4 7 C-2.68 4.69 -1.36 2.38 0 0 Z " fill="#D8D8D8" transform="translate(138,192)"/>
<path d="M0 0 C1.32 0.66 2.64 1.32 4 2 C2.625 4 2.625 4 1 6 C0.34 6 -0.32 6 -1 6 C-1.042721 4.33388095 -1.04063832 2.66617115 -1 1 C-0.67 0.67 -0.34 0.34 0 0 Z " fill="#E5E5E5" transform="translate(163,176)"/>
</svg>
